<svg width="106" height="82" viewBox="0 0 106 82" fill="none" xmlns="http://www.w3.org/2000/svg">
<path opacity="0.2" fill-rule="evenodd" clip-rule="evenodd" d="M90.4505 76.2248C90.2241 76.4609 89.9123 76.5965 89.5854 76.6016C89.2584 76.6066 88.9416 76.4759 88.7102 76.2448C87.7495 75.2851 86.2104 73.7528 85.2598 72.8033C84.797 72.336 84.7869 71.5823 85.2396 71.105C99.1973 56.2786 98.9207 32.9211 84.4147 18.4263C69.6271 3.65513 45.6147 3.65513 30.8271 18.4263C20.6719 28.5702 20.6719 45.0445 30.8271 55.1884C40.9823 65.3322 57.4751 65.3322 67.6302 55.1884C73.153 49.6718 73.153 40.7136 67.6302 35.197C62.1075 29.6805 53.1393 29.6805 47.6166 35.197C46.7263 36.0863 46.7263 37.5283 47.6166 38.4176C48.5069 39.3119 49.9505 39.3119 50.8407 38.4176C54.5829 34.6846 60.6589 34.6846 64.4011 38.4176C68.1433 42.1556 68.1433 48.2248 64.4011 51.9629C56.0265 60.3282 42.4309 60.3282 34.0563 51.9629C25.6816 43.5976 25.6816 30.0171 34.0563 21.6518C47.0634 8.6592 68.1835 8.6592 81.1906 21.6518C94.1977 34.6444 94.1977 55.741 81.1906 68.7336C63.5511 86.3535 34.9063 86.3535 17.2668 68.7336C-0.0760183 51.4051 -0.367733 23.4554 16.4017 5.77526C16.628 5.53912 16.9398 5.40347 17.2668 5.39844C17.5937 5.39844 17.9055 5.52415 18.1369 5.75527C19.1026 6.71489 20.6367 8.2472 21.5874 9.19677C22.0551 9.66402 22.0652 10.4177 21.6125 10.895C7.65481 25.7214 7.92642 49.0789 22.4324 63.5737C37.2251 78.3449 61.2323 78.3449 76.0199 63.5737C86.1751 53.4299 86.1751 36.9555 76.0199 26.8117C65.8647 16.6678 49.3771 16.6678 39.2219 26.8117C33.6992 32.3282 33.6992 41.2864 39.2219 46.803C44.7446 52.3196 53.7127 52.3196 59.2355 46.803C60.1257 45.9137 60.1257 44.4717 59.2355 43.5824C58.3452 42.6931 56.8966 42.6931 56.0064 43.5824C52.2642 47.3204 46.1881 47.3204 42.446 43.5824C38.7088 39.8444 38.7088 33.7752 42.446 30.0372C50.8256 21.6719 64.4212 21.6719 72.7959 30.0372C81.1705 38.4025 81.1705 51.9829 72.7959 60.3482C59.7888 73.3408 38.6686 73.3408 25.6615 60.3482C12.6544 47.3556 12.6544 26.259 25.6615 13.2664C43.301 -4.35346 71.9408 -4.35346 89.5803 13.2664C106.928 30.5949 107.215 58.5446 90.4505 76.2248Z" fill="#8959FF"/>
<path d="M103.713 24.544C104.401 24.5442 105.053 24.917 105.349 25.5419C105.521 25.9094 105.592 26.3152 105.513 26.6792L102.328 41.6125C102.125 42.5576 101.281 43.2253 100.317 43.2001L98.2417 43.2124L101.063 54.5702L101.059 54.5772C101.241 55.3218 101.076 56.1055 100.603 56.7142C100.138 57.3162 99.409 57.6726 98.6458 57.6721L93.8209 57.6843C93.1102 57.6854 92.4374 57.3934 91.9896 56.8918C91.9489 56.85 91.4033 56.1689 90.9709 55.6275L88.3385 55.6314L87.6607 56.6173C87.199 57.2949 86.4347 57.7002 85.615 57.7013L75.4762 57.7237C74.7655 57.7248 74.0906 57.4176 73.6217 56.9025C73.6079 56.8855 73.1254 56.2866 72.6225 55.6667L72.5999 55.7771C72.3491 56.9202 71.3391 57.7361 70.1696 57.7383L60.0346 57.761C59.2111 57.7617 58.4629 57.3642 58.0035 56.7222C57.9972 56.7103 57.5337 56.1432 57.1735 55.7033L54.5524 55.7084L53.878 56.6946C53.4089 57.3713 52.6448 57.7768 51.8252 57.7778L46.9961 57.7895C46.5563 57.7887 46.1323 57.6731 45.7593 57.4651C45.0715 57.6791 44.3486 57.7956 43.6189 57.7985L31.5508 57.8267C30.795 57.8269 30.0787 57.4851 29.6093 56.9023L27.0158 53.6455C26.5724 53.0654 26.4029 52.3107 26.5566 51.5936L29.7097 38.6985C29.7759 38.4279 30.02 38.2386 30.2985 38.2418L33.1426 38.2743C33.1002 37.7757 33.2065 37.2713 33.4579 36.8296L35.2625 33.6562C35.2333 33.6119 35.2078 33.5679 35.1823 33.524C34.6579 32.567 34.5211 31.4999 34.7749 30.327C35.0381 29.1362 35.7853 27.8116 37.2917 26.7053C38.9366 25.4968 41.6763 24.4626 45.877 24.453C49.4496 24.4456 52.2756 25.2892 53.7405 25.8441C54.1782 25.1077 54.9794 24.6346 55.8705 24.6335L65.7819 24.6288C67.4933 24.6229 68.9683 25.0813 70.1257 25.8449C70.5612 25.0932 71.3723 24.5986 72.2825 24.5957L83.8659 24.566C84.2 24.5707 84.5279 24.6349 84.8269 24.7601C85.1255 24.637 85.4488 24.5656 85.7875 24.5633L93.5061 24.5293C94.2321 24.526 94.8958 24.832 95.3622 25.3355C95.3751 25.3557 95.515 25.5283 95.7186 25.7751C96.1574 25.0275 96.9641 24.54 97.8668 24.5363L103.713 24.544Z" fill="#106C2A"/>
<path d="M103.713 24.544C104.401 24.5442 105.053 24.917 105.349 25.5419C105.521 25.9094 105.592 26.3152 105.513 26.6792L102.328 41.6125C102.125 42.5576 101.281 43.2253 100.317 43.2001L98.2417 43.2124L101.063 54.5702L101.059 54.5772C101.241 55.3218 101.076 56.1055 100.603 56.7142C100.138 57.3162 99.409 57.6726 98.6458 57.6721L93.8209 57.6843C93.1102 57.6854 92.4374 57.3934 91.9896 56.8918C91.9489 56.85 91.4033 56.1689 90.9709 55.6275L88.3385 55.6314L87.6607 56.6173C87.199 57.2949 86.4347 57.7002 85.615 57.7013L75.4762 57.7237C74.7655 57.7248 74.0906 57.4176 73.6217 56.9025C73.6079 56.8855 73.1254 56.2866 72.6225 55.6667L72.5999 55.7771C72.3491 56.9202 71.3391 57.7361 70.1696 57.7383L60.0346 57.761C59.2111 57.7617 58.4629 57.3642 58.0035 56.7222C57.9972 56.7103 57.5337 56.1432 57.1735 55.7033L54.5524 55.7084L53.878 56.6946C53.4089 57.3713 52.6448 57.7768 51.8252 57.7778L46.9961 57.7895C46.5563 57.7887 46.1323 57.6731 45.7593 57.4651C45.0715 57.6791 44.3486 57.7956 43.6189 57.7985L31.5508 57.8267C30.795 57.8269 30.0787 57.4851 29.6093 56.9023L27.0158 53.6455C26.5724 53.0654 26.4029 52.3107 26.5566 51.5936L29.7097 38.6985C29.7759 38.4279 30.02 38.2386 30.2985 38.2418L33.1426 38.2743C33.1002 37.7757 33.2065 37.2713 33.4579 36.8296L35.2625 33.6562C35.2333 33.6119 35.2078 33.5679 35.1823 33.524C34.6579 32.567 34.5211 31.4999 34.7749 30.327C35.0381 29.1362 35.7853 27.8116 37.2917 26.7053C38.9366 25.4968 41.6763 24.4626 45.877 24.453C49.4496 24.4456 52.2756 25.2892 53.7405 25.8441C54.1782 25.1077 54.9794 24.6346 55.8705 24.6335L65.7819 24.6288C67.4933 24.6229 68.9683 25.0813 70.1257 25.8449C70.5612 25.0932 71.3723 24.5986 72.2825 24.5957L83.8659 24.566C84.2 24.5707 84.5279 24.6349 84.8269 24.7601C85.1255 24.637 85.4488 24.5656 85.7875 24.5633L93.5061 24.5293C94.2321 24.526 94.8958 24.832 95.3622 25.3355C95.3751 25.3557 95.515 25.5283 95.7186 25.7751C96.1574 25.0275 96.9641 24.54 97.8668 24.5363L103.713 24.544Z" fill="url(#paint0_linear_37_76177)"/>
<path d="M102.546 25.5565C102.925 25.5585 103.283 25.7312 103.52 26.0227C103.78 26.343 103.882 26.7674 103.799 27.1722L103.813 27.1814L101.027 40.4941C100.884 41.1748 100.285 41.6613 99.5891 41.6603L96.0039 41.6559L99.0311 53.841L99.0208 53.8322C99.1137 54.2028 99.0274 54.5965 98.7925 54.9028C98.5546 55.2013 98.194 55.3781 97.8104 55.3795L92.9854 55.3916C92.6394 55.3932 92.3113 55.2575 92.0886 55.0125C92.0416 54.9588 91.1031 53.7893 90.7448 53.3308L86.8565 53.3391L85.8057 54.8689C85.5751 55.2057 85.189 55.41 84.7794 55.4087L74.644 55.4352C74.2831 55.4351 73.9491 55.2838 73.7127 55.0261C73.6818 54.9879 71.7595 52.6136 71.7034 52.5193L71.2595 51.7248L71.1506 51.7247L70.549 54.467C70.4223 55.0327 69.9137 55.4385 69.3344 55.4421L64.5052 55.4574C64.4263 55.4567 64.3444 55.4481 64.2671 55.4326C64.1867 55.4467 64.1066 55.4575 64.0278 55.4568L59.1989 55.4686C58.7893 55.4672 58.4151 55.2703 58.1854 54.9494C58.1757 54.9334 57.1453 53.6715 56.9395 53.4093L53.0696 53.4195L52.0192 54.9497C51.7886 55.2865 51.4025 55.4904 50.9929 55.4892L46.1676 55.5013C45.7687 55.5048 45.4046 55.3203 45.17 55.0102C44.4223 55.3307 43.6136 55.5136 42.7865 55.5139L30.7186 55.5381C30.3424 55.5403 29.9842 55.3674 29.7476 55.0758L27.8986 52.7965C27.6624 52.5012 27.571 52.1157 27.6544 51.7484L30.6375 39.4623L35.1513 39.415C34.7605 38.9304 34.423 38.5097 34.3991 38.4681C34.3518 38.3804 34.3126 38.2896 34.2851 38.1927C34.1909 37.8708 34.2307 37.5253 34.4001 37.2347L36.3114 33.8658C36.4078 33.6992 36.5347 33.5618 36.6842 33.4609L36.6582 33.4245C36.4452 33.1955 36.2671 32.955 36.1345 32.7119C35.7557 32.0182 35.6682 31.2346 35.8511 30.3815C36.0635 29.4261 36.6839 28.3813 37.8853 27.4951C39.3873 26.3959 41.8987 25.4957 45.7382 25.4861C50.7322 25.4765 54.1708 27.2261 54.1708 27.2261C54.2383 27.2632 54.2981 27.3033 54.3612 27.3475L54.5127 26.6525C54.636 26.0827 55.1369 25.6762 55.7273 25.6738L65.635 25.6686C67.8579 25.6597 69.6149 26.5537 70.6026 27.9349L70.6264 27.9599L70.9209 26.6106C71.048 26.0411 71.5566 25.6355 72.1359 25.6319L83.7187 25.606C84.0953 25.6002 84.4502 25.7687 84.6867 26.0603C84.9156 25.776 85.2646 25.6016 85.6481 25.6001L93.3672 25.5625C93.7281 25.5626 94.0624 25.7138 94.2954 25.9674C94.3403 26.0185 95.9316 27.9805 96.1344 28.2347L96.5056 26.5477C96.6289 25.9778 97.1335 25.5753 97.7202 25.5725L102.546 25.5565Z" fill="black"/>
<path fill-rule="evenodd" clip-rule="evenodd" d="M78.534 52.6653L73.2236 52.6795L71.1442 48.9661L68.73 48.9702L67.9174 52.6905L63.0885 52.7023L65.8091 40.3075L76.1849 40.2835C78.9828 40.2781 80.8304 42.2115 80.3024 44.6079C79.903 46.4199 78.263 47.9785 76.2736 48.6322L78.534 52.6653ZM78.534 52.6653L87.046 40.2574L93.3228 40.2424L96.3974 52.6246L91.5686 52.6364L91.0581 50.5717L84.7814 50.5867L83.3625 52.6572L78.5373 52.6694L78.534 52.6653ZM69.91 43.6L69.4579 45.6659L74.5234 45.6562C75.1891 45.6541 75.8277 45.1905 75.9547 44.621C76.0821 44.0477 75.6409 43.5919 74.9755 43.5902L69.91 43.6ZM89.3882 43.8667L86.7634 47.6951L90.336 47.6878L89.3882 43.8667ZM74.523 30.2556L71.1453 30.2683L71.8718 26.9413L83.4548 26.9153L82.725 30.2382L79.3477 30.2471L78.0767 36.0214L81.4577 36.0129L80.7278 39.3357L69.1482 39.3659L69.8743 36.0426L73.2553 36.034L74.523 30.2556ZM89.537 29.9931L87.5003 39.2896L82.6715 39.3014L85.392 26.9066L93.1111 26.8689L95.4199 36.1747L97.4636 26.8827L102.289 26.8704L99.5682 39.2653L91.8491 39.303L89.5407 29.9935L89.537 29.9931ZM58.2101 36.4512L57.5687 39.3584L52.7432 39.3743L55.4637 26.9795L65.3751 26.9748C68.429 26.966 70.4381 29.0816 69.8649 31.6952C69.2917 34.3087 66.3522 36.4312 63.2983 36.4401L58.2101 36.4512ZM59.5651 30.2682L58.9286 33.1647L63.3704 33.1502C64.3029 33.1496 65.2013 32.5025 65.3751 31.701C65.5522 30.9035 64.9353 30.2565 64.0062 30.2611L59.5651 30.2682ZM52.0979 35.7164C51.6879 37.5949 49.5139 39.5867 43.7224 39.5997C38.3447 39.6107 35.2094 37.9116 35.2094 37.9116L37.1282 34.5434C37.1282 34.5434 41.2611 35.9066 44.5178 35.9002C45.9243 35.8964 46.7244 35.7241 46.7953 35.4043C46.9163 34.8567 45.4446 34.583 42.4646 34.28C37.7624 33.7974 36.4082 32.5057 36.8019 30.7119C37.199 28.9222 39.6864 26.809 45.4742 26.7956C50.1333 26.7887 53.3375 28.4047 53.3375 28.4047L51.0903 31.7123C51.0903 31.7123 47.8499 30.4798 44.0965 30.4909C42.6639 30.492 41.8164 30.6142 41.7447 30.9413C41.6181 31.5072 42.6968 31.691 45.8401 32.0149C50.0885 32.4501 52.4917 33.9226 52.0942 35.716L52.0979 35.7164ZM50.9876 50.6628L49.5687 52.7333L44.7436 52.7455L53.2556 40.3376L59.5323 40.3226L62.6074 52.701L57.7819 52.717L57.2677 50.6518L50.991 50.6669L50.9876 50.6628ZM55.6019 43.9435L52.9771 47.772L56.5497 47.7646L55.6019 43.9435ZM41.3667 52.7507L29.3022 52.7792L32.0227 40.3843L43.3654 40.3558C45.3625 40.3497 46.6802 41.7391 46.3066 43.4485C46.0373 44.6612 44.991 45.7177 43.6899 46.225C45.3164 46.5637 46.3003 47.8732 45.9571 49.4354C45.5524 51.2619 43.5026 52.7477 41.3667 52.7507ZM36.1196 43.6801L35.7555 45.3341L40.5843 45.3223C41.115 45.3175 41.6311 44.9464 41.7309 44.4943C41.8273 44.0381 41.4787 43.6672 40.9447 43.6679L36.1196 43.6801ZM34.8071 49.672L40.1133 49.661C40.6477 49.6566 41.1639 49.2855 41.2599 48.833C41.36 48.3772 41.0114 48.0063 40.4775 48.007L35.1675 48.0176L34.8071 49.672Z" fill="#1DA443"/>
<path fill-rule="evenodd" clip-rule="evenodd" d="M78.534 52.6653L73.2236 52.6795L71.1442 48.9661L68.73 48.9702L67.9174 52.6905L63.0885 52.7023L65.8091 40.3075L76.1849 40.2835C78.9828 40.2781 80.8304 42.2115 80.3024 44.6079C79.903 46.4199 78.263 47.9785 76.2736 48.6322L78.534 52.6653ZM78.534 52.6653L87.046 40.2574L93.3228 40.2424L96.3974 52.6246L91.5686 52.6364L91.0581 50.5717L84.7814 50.5867L83.3625 52.6572L78.5373 52.6694L78.534 52.6653ZM69.91 43.6L69.4579 45.6659L74.5234 45.6562C75.1891 45.6541 75.8277 45.1905 75.9547 44.621C76.0821 44.0477 75.6409 43.5919 74.9755 43.5902L69.91 43.6ZM89.3882 43.8667L86.7634 47.6951L90.336 47.6878L89.3882 43.8667ZM74.523 30.2556L71.1453 30.2683L71.8718 26.9413L83.4548 26.9153L82.725 30.2382L79.3477 30.2471L78.0767 36.0214L81.4577 36.0129L80.7278 39.3357L69.1482 39.3659L69.8743 36.0426L73.2553 36.034L74.523 30.2556ZM89.537 29.9931L87.5003 39.2896L82.6715 39.3014L85.392 26.9066L93.1111 26.8689L95.4199 36.1747L97.4636 26.8827L102.289 26.8704L99.5682 39.2653L91.8491 39.303L89.5407 29.9935L89.537 29.9931ZM58.2101 36.4512L57.5687 39.3584L52.7432 39.3743L55.4637 26.9795L65.3751 26.9748C68.429 26.966 70.4381 29.0816 69.8649 31.6952C69.2917 34.3087 66.3522 36.4312 63.2983 36.4401L58.2101 36.4512ZM59.5651 30.2682L58.9286 33.1647L63.3704 33.1502C64.3029 33.1496 65.2013 32.5025 65.3751 31.701C65.5522 30.9035 64.9353 30.2565 64.0062 30.2611L59.5651 30.2682ZM52.0979 35.7164C51.6879 37.5949 49.5139 39.5867 43.7224 39.5997C38.3447 39.6107 35.2094 37.9116 35.2094 37.9116L37.1282 34.5434C37.1282 34.5434 41.2611 35.9066 44.5178 35.9002C45.9243 35.8964 46.7244 35.7241 46.7953 35.4043C46.9163 34.8567 45.4446 34.583 42.4646 34.28C37.7624 33.7974 36.4082 32.5057 36.8019 30.7119C37.199 28.9222 39.6864 26.809 45.4742 26.7956C50.1333 26.7887 53.3375 28.4047 53.3375 28.4047L51.0903 31.7123C51.0903 31.7123 47.8499 30.4798 44.0965 30.4909C42.6639 30.492 41.8164 30.6142 41.7447 30.9413C41.6181 31.5072 42.6968 31.691 45.8401 32.0149C50.0885 32.4501 52.4917 33.9226 52.0942 35.716L52.0979 35.7164ZM50.9876 50.6628L49.5687 52.7333L44.7436 52.7455L53.2556 40.3376L59.5323 40.3226L62.6074 52.701L57.7819 52.717L57.2677 50.6518L50.991 50.6669L50.9876 50.6628ZM55.6019 43.9435L52.9771 47.772L56.5497 47.7646L55.6019 43.9435ZM41.3667 52.7507L29.3022 52.7792L32.0227 40.3843L43.3654 40.3558C45.3625 40.3497 46.6802 41.7391 46.3066 43.4485C46.0373 44.6612 44.991 45.7177 43.6899 46.225C45.3164 46.5637 46.3003 47.8732 45.9571 49.4354C45.5524 51.2619 43.5026 52.7477 41.3667 52.7507ZM36.1196 43.6801L35.7555 45.3341L40.5843 45.3223C41.115 45.3175 41.6311 44.9464 41.7309 44.4943C41.8273 44.0381 41.4787 43.6672 40.9447 43.6679L36.1196 43.6801ZM34.8071 49.672L40.1133 49.661C40.6477 49.6566 41.1639 49.2855 41.2599 48.833C41.36 48.3772 41.0114 48.0063 40.4775 48.007L35.1675 48.0176L34.8071 49.672Z" fill="url(#paint1_linear_37_76177)"/>
<path d="M0.737743 55.5284L0.722931 55.6876L0.778474 56.0135C0.974729 57.1836 1.97822 58.0317 3.16315 58.0317L28.591 58.0243C29.1909 58.0243 29.7537 57.7613 30.1425 57.3021C30.5314 56.8393 30.6906 56.2393 30.5869 55.6469L30.5721 55.5691L29.5538 52.3696C31.6533 51.8252 35.123 49.7478 37.1633 42.2342C38.4815 37.3683 37.3262 33.9947 33.6307 31.9543C33.9862 31.2396 34.1343 30.4397 34.1898 29.7584C34.2269 29.3066 34.075 28.8585 33.764 28.5252C33.4567 28.1956 33.0234 28.0068 32.5754 28.0031H32.1199C32.2236 27.7402 32.2569 27.455 32.2162 27.1736V27.1625C32.194 27.0329 32.1754 26.8959 32.1569 26.7774V26.7625C32.0495 26.0367 31.4645 25.4702 30.735 25.3887L29.6723 25.2628C29.6093 25.2554 29.5464 25.2517 29.4834 25.2517C29.3909 25.2517 29.2983 25.2591 29.2057 25.2739C29.0132 25.1961 28.8021 25.1517 28.5873 25.1517C28.4614 25.1517 28.3392 25.1665 28.217 25.1924L28.006 25.2443C27.3469 25.3961 26.8692 25.9293 26.7729 26.5737L26.3026 26.2367C26.847 24.9369 26.5841 23.3927 25.5509 22.3521L25.2806 22.0781C24.7252 21.5189 23.992 21.2116 23.207 21.2116C22.97 21.2116 22.733 21.2412 22.4997 21.2967C21.9184 21.4412 21.3963 21.767 20.9815 22.241L19.6929 23.726H15.9123L13.3573 21.0042C12.65 20.2488 11.6465 19.8155 10.6097 19.8155C10.2357 19.8155 9.86171 19.871 9.50253 19.9821C8.11764 20.4043 7.11415 21.556 6.88087 22.9854L6.58464 24.7999C6.4106 25.8627 6.69943 26.9514 7.38076 27.7883L7.80289 28.303C6.98455 29.7176 5.23678 33.0764 3.53344 38.5681C1.85232 44.0042 0.782177 55.0618 0.737743 55.5284Z" fill="url(#paint2_linear_37_76177)"/>
<path fill-rule="evenodd" clip-rule="evenodd" d="M28.6356 56.8318L3.21147 56.8392C2.6153 56.8392 2.108 56.4097 2.01172 55.8209L1.9821 55.6505C1.9821 55.6505 3.06705 44.3116 4.72966 38.9309C6.98473 31.6506 9.32127 28.2104 9.32127 28.2104L8.36222 27.0328C7.89935 26.4626 7.69939 25.7219 7.81789 24.9961L8.11412 23.1816C8.26964 22.2151 8.96579 21.4189 9.89892 21.1338C10.8358 20.8486 11.8541 21.119 12.5243 21.8337L15.4348 24.9332H20.2856L21.9371 23.0409C22.1741 22.7668 22.4851 22.5595 22.8369 22.4743C23.4368 22.3262 24.0514 22.5076 24.4736 22.9298L24.7439 23.2038C25.5807 24.0481 25.6585 25.3849 24.9216 26.3181L24.7328 26.5588L26.388 27.7475C27.4544 28.6585 27.647 29.7102 27.6396 30.4138L32.3645 32.6394C36.0415 34.328 37.3449 37.1238 36.0452 41.9194C33.2939 52.0622 28.0062 51.3401 28.0062 51.3401L29.4466 55.8579C29.4873 56.0986 29.4207 56.343 29.2651 56.5282C29.1096 56.7133 28.8763 56.8207 28.6356 56.8207V56.8318Z" fill="black"/>
<path fill-rule="evenodd" clip-rule="evenodd" d="M23.6843 25.8136L23.9102 25.5285C24.2435 25.1026 24.2102 24.4953 23.8288 24.1139L23.5584 23.8399C23.477 23.7547 23.3585 23.7103 23.24 23.714C23.1215 23.7177 23.0104 23.7732 22.9326 23.8621L21.9218 25.0249C22.5179 25.1434 23.0882 25.3878 23.5881 25.747L23.688 25.8173L23.6843 25.8136Z" fill="#DF8F4E"/>
<path fill-rule="evenodd" clip-rule="evenodd" d="M21.9182 25.0139C22.5144 25.1324 23.0846 25.3768 23.5845 25.736L22.9291 23.8511L21.9182 25.0139Z" fill="#C77230"/>
<path fill-rule="evenodd" clip-rule="evenodd" d="M15.8898 27.2927C15.4935 27.315 15.1084 27.1705 14.8233 26.8965C13.8494 25.9559 11.587 23.7637 11.2722 23.5304C9.85401 22.475 9.38004 23.3859 9.38004 23.3859C9.4578 22.9008 9.80587 22.5046 10.2724 22.3639C10.739 22.2195 11.25 22.3565 11.5833 22.712L15.886 27.2927H15.8898Z" fill="url(#paint3_linear_37_76177)"/>
<path fill-rule="evenodd" clip-rule="evenodd" d="M28.3953 55.6679L5.96307 55.6494C5.96307 55.6494 6.62219 45.1177 7.5183 41.5812C8.4144 38.0448 10.3066 35.3896 10.3066 35.3896C10.3732 35.2415 10.351 35.0712 10.2436 34.9489C10.1363 34.8267 9.97332 34.7749 9.8178 34.8156C9.65487 34.8601 9.47714 34.8082 9.36605 34.6786C9.25496 34.549 9.22163 34.3713 9.28829 34.212L11.5434 28.7092L9.57341 26.2874C9.34013 26.0022 9.24385 25.6319 9.3031 25.269V23.2804C9.38456 22.7953 9.69561 22.5213 10.1659 22.3769C10.6324 22.2324 11.4693 22.425 11.8026 22.7842L15.8535 27.0946C15.898 27.1391 15.9646 27.1576 16.0202 27.1354C16.0757 27.1132 16.1202 27.0576 16.1239 26.9984L16.1387 26.691C16.1498 26.4688 16.3349 26.2911 16.5571 26.2911H21.3042C21.93 26.2948 22.5447 26.491 23.052 26.8576L25.8514 28.8684C26.0884 29.0388 26.2254 29.3202 26.2143 29.6128L27.751 31.2903L32.824 34.112C35.3012 35.3267 35.9826 38.5706 35.1642 41.2072L32.998 46.7249C30.8244 51.3612 25.9958 49.9244 25.9958 49.9244L28.2657 54.7606L28.3953 55.6642V55.6679Z" fill="url(#paint4_linear_37_76177)"/>
<path fill-rule="evenodd" clip-rule="evenodd" d="M32.587 46.9698C29.0322 51.8505 21.8263 48.14 21.8263 48.14C18.627 46.5329 21.7264 45.2442 21.7264 45.2442C21.7264 45.2442 19.8416 45.5589 19.5972 44.3739C19.4268 43.563 20.4637 41.3966 22.9076 40.1783C19.2195 41.6373 19.201 38.3823 23.4593 37.0788C21.8967 36.3419 25.2737 34.3496 25.2737 34.3496C25.2737 34.3496 23.0668 34.9236 24.4961 32.7684L30.3875 32.8424L33.1091 34.2681C34.2755 34.9532 35.1346 40.9708 34.6606 42.2372L32.5907 46.9661L32.587 46.9698Z" fill="url(#paint5_linear_37_76177)"/>
<path fill-rule="evenodd" clip-rule="evenodd" d="M28.1871 55.5124L5.96224 55.568L5.13649 42.6996C5.08835 42.6441 6.1622 37.8819 7.63225 34.3195C8.91346 31.2126 10.5761 27.9538 10.5761 27.9538L9.36151 26.2097C9.12823 25.9245 9.03195 25.5542 9.0912 25.1913L9.36521 23.3286C9.75402 23.2694 10.2243 23.673 10.8168 24.0619L13.2607 26.8059L13.8309 29.5684L23.7658 32.2606L24.0695 32.9419C22.4328 35.9266 19.2261 35.7933 20.4888 34.6046C20.4888 34.6046 18.1967 35.8304 17.008 35.8304C15.8194 35.8304 17.008 34.5602 17.008 34.5602C17.008 34.5602 15.9749 34.6787 14.453 35.1712C13.2236 35.5711 12.6608 36.6228 13.7828 36.9302C14.3012 37.0709 15.2528 36.9746 15.2528 36.9746C15.2528 36.9746 9.10971 38.0374 10.4983 41.9479C11.5425 43.6069 14.1383 41.9479 14.1383 41.9479C14.1383 41.9479 10.4465 45.751 11.7462 47.1175C12.7608 48.1877 15.6602 45.6992 15.6602 45.6992C15.6602 45.6992 13.8568 47.8211 14.6715 48.8727C15.7453 50.2651 18.504 47.2137 18.504 47.2137C18.504 47.2137 20.2814 49.8022 24.1102 49.4578L28.0168 54.4755L28.1982 55.505L28.1871 55.5124Z" fill="url(#paint6_linear_37_76177)"/>
<path fill-rule="evenodd" clip-rule="evenodd" d="M28.2764 54.7686L24.1032 49.4732C24.0513 49.6324 22.3258 54.7168 19.1931 54.0169C17.7453 53.6947 17.3046 50.6544 17.3046 50.6544C17.3046 50.6544 14.6719 54.4538 13.1389 53.9502C11.8502 53.5244 13.2759 49.4657 13.2759 49.4657C13.2759 49.4657 9.77662 53.8243 8.56577 52.6097C7.35121 51.3951 9.03604 47.7401 9.03604 47.7401C9.03604 47.7401 7.67337 48.8547 6.94389 48.0549C5.88856 46.8995 8.57317 43.9703 8.57317 43.9703C8.57317 43.9703 7.28086 44.8368 6.93649 44.1925C6.28848 42.9816 9.45076 40.4894 9.45076 40.4894C9.45076 40.4894 7.09201 41.33 6.76986 40.4449C5.72934 38.0083 9.99139 36.0938 9.99139 36.0938C9.99139 36.0938 8.50652 36.3752 7.95849 35.9383C6.39586 34.894 10.4913 29.2504 10.4913 29.2504C10.4913 29.2504 7.65485 32.4684 5.91078 38.7304C4.16671 44.9924 3.17433 55.7944 3.17433 55.7944H28.4504L28.2727 54.7723L28.2764 54.7686Z" fill="url(#paint7_linear_37_76177)"/>
<path d="M5.97729 39.2084C7.71765 32.9649 3.04088 55.691 3.02977 55.791C3.02977 55.791 4.23322 45.4704 5.97729 39.2084Z" fill="url(#paint8_linear_37_76177)"/>
<path d="M10.5726 27.9581C10.5726 27.9581 10.8392 28.2729 10.8799 28.7358C9.58392 30.0689 7.66581 35.6273 6.36979 40.2784C4.63313 46.5107 4.11102 55.6908 4.09991 55.7908H3.02977C3.02977 55.7908 3.78516 45.7627 5.91434 38.7268C7.93613 32.0575 10.5652 27.9692 10.5726 27.9581Z" fill="url(#paint9_linear_37_76177)"/>
<path fill-rule="evenodd" clip-rule="evenodd" d="M24.1621 32.3984C24.4102 32.2354 24.6435 32.0688 24.8656 31.9021C25.4063 31.4985 25.8876 31.0912 26.3801 30.7875C26.4912 30.7208 26.5986 30.6579 26.7097 30.6023L33.3231 34.3758C35.1708 35.2572 36.3076 37.6642 35.3745 41.1784C35.3745 41.1784 33.286 47.5959 31.3383 48.9254C31.9308 48.5217 34.7598 40.2712 34.7598 40.2712C35.1968 37.1235 34.0007 35.8719 33.1935 35.3979L31.0865 34.161C31.0865 34.161 32.1344 35.2201 31.5827 35.4386C30.8051 35.746 28.1316 33.8018 28.1316 33.8018C28.1316 33.8018 28.6167 34.4869 28.1168 34.5388C27.0059 34.6461 24.1658 32.3946 24.1658 32.3946L24.1621 32.3984ZM25.4655 28.5656H21.7922L19.9074 26.9474L16.1453 26.6585C16.1564 26.44 16.3341 26.266 16.5563 26.266H21.3145C21.9403 26.2697 22.555 26.466 23.0623 26.8326L25.4692 28.5619L25.4655 28.5656Z" fill="url(#paint10_linear_37_76177)"/>
<path fill-rule="evenodd" clip-rule="evenodd" d="M35.0669 38.0195C35.0669 38.0195 35.0521 38.0195 35.0484 38.0047C34.8558 37.9714 34.7114 37.8084 34.7003 37.6159C34.6707 37.2308 34.5225 36.8567 34.2633 36.5568C34.1263 36.3975 34.1226 36.1643 34.2559 36.0013C34.2559 35.9976 34.2633 35.9902 34.2782 35.9902C34.3559 35.8976 34.4707 35.8421 34.5929 35.8384C34.7151 35.8384 34.8336 35.8865 34.9114 35.9791C35.2965 36.4383 35.5186 36.9975 35.5705 37.5751C35.5742 37.7047 35.5223 37.827 35.4261 37.9158C35.3298 38.0047 35.2002 38.038 35.0743 38.0158L35.0669 38.0195Z" fill="#FEE5C2"/>
<path fill-rule="evenodd" clip-rule="evenodd" d="M33.1053 38.5822C32.7609 38.3674 32.361 38.0415 32.361 37.6971C32.361 36.7936 33.3941 36.5973 33.7088 37.2083C33.8829 37.5416 33.831 38.0008 33.7422 38.3452C33.7199 38.4822 33.6237 38.597 33.4941 38.6451C33.3645 38.6933 33.2164 38.671 33.1053 38.5822Z" fill="black"/>
<path fill-rule="evenodd" clip-rule="evenodd" d="M28.0168 37.9457C28.0353 37.4199 28.1686 36.3275 28.9536 36.3275C29.4165 36.3275 29.9497 36.5682 29.9497 37.3088C29.9497 37.9642 28.8648 38.1494 28.3241 38.2123C28.2427 38.2234 28.1686 38.2012 28.1094 38.1494C28.0501 38.0975 28.0168 38.0198 28.0205 37.942L28.0168 37.9457Z" fill="black"/>
<path fill-rule="evenodd" clip-rule="evenodd" d="M21.5886 27.0662C21.522 27.0514 21.4553 27.0328 21.3924 27.0217C21.2368 26.9847 21.0776 27.0402 20.9776 27.1587C20.8999 27.2476 20.8295 27.3328 20.8295 27.3328C20.8295 27.3328 20.7369 27.2587 20.6518 27.1921C20.5703 27.1291 20.4703 27.0958 20.3667 27.0995C20.1112 27.1143 19.6039 27.1402 19.2632 27.155C19.0632 27.1662 18.9003 27.3143 18.8707 27.5105C18.8522 27.629 18.8337 27.7698 18.8114 27.8957C18.7929 28.0142 18.8262 28.129 18.9003 28.2215C18.9707 28.3141 19.0817 28.3697 19.2002 28.3771C19.7927 28.4141 20.8258 28.4845 21.3924 28.5215C21.6145 28.5363 21.8108 28.3734 21.8367 28.1512C21.8589 27.9549 21.8849 27.7179 21.9071 27.5254C21.933 27.3143 21.7923 27.118 21.5849 27.0662H21.5886Z" fill="black"/>
<path fill-rule="evenodd" clip-rule="evenodd" d="M28.3284 26.4259C28.3988 26.4111 28.4728 26.3926 28.5395 26.3778C28.695 26.3407 28.8543 26.3926 28.9542 26.5148C29.0283 26.6037 29.1023 26.6888 29.1023 26.6888C29.1023 26.6888 29.1875 26.6222 29.269 26.5555C29.3578 26.4852 29.4689 26.4518 29.58 26.4666C29.8355 26.4963 30.3206 26.5518 30.6428 26.5926C30.8316 26.6148 30.9834 26.7592 31.0093 26.9481C31.0279 27.074 31.0464 27.2221 31.0686 27.3554C31.0871 27.4739 31.0538 27.5887 30.9797 27.6813C30.9057 27.7738 30.7983 27.8294 30.6798 27.8368C30.091 27.8738 29.0727 27.9405 28.5025 27.9738C28.2729 27.9886 28.0766 27.8146 28.0581 27.585C28.0396 27.3591 28.0211 27.0814 28.0063 26.8666C27.9915 26.6592 28.1285 26.4741 28.3321 26.4259H28.3284Z" fill="black"/>
<path fill-rule="evenodd" clip-rule="evenodd" d="M23.9738 28.5137C23.8442 28.5137 23.7183 28.473 23.611 28.3989L22.3335 27.4843C21.9706 27.2213 21.5336 27.0806 21.0856 27.0806V26.2215C21.7114 26.2215 22.326 26.4178 22.8333 26.7844L24.2071 27.7731C24.3515 27.8768 24.4108 28.0619 24.3552 28.2286C24.2997 28.3952 24.1442 28.51 23.9664 28.51L23.9738 28.5137Z" fill="url(#paint11_linear_37_76177)"/>
<path fill-rule="evenodd" clip-rule="evenodd" d="M34.4859 35.1166L34.049 35.8572L27.1394 31.806C27.0394 31.7504 26.969 31.6541 26.9394 31.543C26.9098 31.4319 26.9283 31.3172 26.9838 31.2172C27.106 31.0135 27.3652 30.9468 27.5726 31.0653L34.4822 35.1203L34.4859 35.1166Z" fill="url(#paint12_linear_37_76177)"/>
<path fill-rule="evenodd" clip-rule="evenodd" d="M34.1044 44.578L32.6714 47.6367L31.7086 48.681C31.7086 48.681 34.034 42.5042 34.6043 40.7749C34.6784 40.5453 34.9264 40.4231 35.1523 40.4971C35.3745 40.5712 35.493 40.8082 35.4226 41.0304C34.8598 42.7375 34.1044 44.5817 34.1044 44.5817V44.578Z" fill="url(#paint13_linear_37_76177)"/>
<path fill-rule="evenodd" clip-rule="evenodd" d="M30.6903 32.6348L27.2725 31.0166C26.8726 31.0499 26.5135 31.2165 26.1617 31.435C25.6692 31.7387 25.1878 32.1423 24.6472 32.5497C23.4437 33.4532 21.9774 34.342 19.6779 34.342C15.2196 34.342 13.7903 31.7609 13.6162 29.6538C13.6088 29.5353 13.6495 29.4242 13.7273 29.3391C13.8051 29.2539 13.9162 29.2057 14.0346 29.2057C16.6304 29.2057 30.0312 29.2169 32.6233 29.2243C32.738 29.2243 32.8491 29.2724 32.9306 29.3576C33.0121 29.4427 33.0491 29.5575 33.038 29.6723C32.8713 31.7609 31.9419 32.6385 30.694 32.6385L30.6903 32.6348Z" fill="black"/>
<path fill-rule="evenodd" clip-rule="evenodd" d="M18.052 31.9977C18.0298 32.1384 18.0817 32.2828 18.1891 32.3754L20.396 34.3047C20.6033 34.2862 20.9107 34.2455 21.1144 34.201C21.3143 34.1603 21.829 34.0233 21.9216 34.0048L21.3661 33.2753C21.2958 33.1753 21.2699 33.0494 21.2995 32.9272C21.3291 32.805 21.4106 32.705 21.5217 32.6494L22.8251 32.0088C22.9436 31.9495 23.0251 31.8421 23.051 31.7125C23.0769 31.5829 23.0399 31.4496 22.9547 31.3533L21.0773 29.2203H18.4594L19.6554 30.4535C19.7517 30.5535 19.7924 30.6905 19.7628 30.8275C19.7369 30.9608 19.648 31.0756 19.5221 31.1311L18.2927 31.6755C18.1631 31.7348 18.0669 31.8533 18.0483 31.9977H18.052Z" fill="url(#paint14_linear_37_76177)"/>
<path fill-rule="evenodd" clip-rule="evenodd" d="M28.7063 30.5834C28.6804 30.7167 28.5915 30.8315 28.4656 30.887L27.551 31.1648L29.3469 32.0906L30.7059 31.4758C30.8244 31.4203 30.9132 31.3092 30.9429 31.1796C30.9725 31.05 30.9355 30.913 30.8466 30.813L29.421 29.2095H27.588L28.5952 30.2131C28.6915 30.3131 28.7322 30.4501 28.7063 30.5871V30.5834Z" fill="url(#paint15_linear_37_76177)"/>
<path fill-rule="evenodd" clip-rule="evenodd" d="M11.2618 27.199C10.8396 26.6805 10.0213 25.677 10.0213 25.677C9.94353 25.5844 9.9139 25.4585 9.93242 25.3363L10.0991 24.3031C10.125 24.1439 10.2398 24.0106 10.3953 23.9625C10.5508 23.9143 10.7211 23.9625 10.8322 24.0772C10.8322 24.0772 12.3837 25.7251 13.2613 26.662C13.3354 26.7398 13.3502 26.8583 13.291 26.9546C13.2354 27.0471 13.1243 27.0916 13.0206 27.062C12.7096 26.9768 12.3652 26.8805 12.106 26.8102C11.9949 26.7805 11.8801 26.7953 11.7802 26.8546C11.6839 26.9138 11.6172 27.0101 11.5913 27.1212C11.5765 27.1916 11.521 27.2471 11.4506 27.2619C11.384 27.2767 11.3062 27.2545 11.2618 27.199Z" fill="black"/>
<path d="M29.9724 31.7798C29.9724 30.4912 28.9282 29.4432 27.6396 29.4432C26.3509 29.4432 25.303 30.4875 25.303 31.7761C25.303 33.0648 26.3472 34.1128 27.6359 34.1128C28.9245 34.1128 29.9724 33.0685 29.9724 31.7798Z" fill="url(#paint16_radial_37_76177)"/>
<path d="M32.2864 30.0949C32.2864 28.8062 31.2422 27.7582 29.9535 27.7582C28.6649 27.7582 27.617 28.8025 27.617 30.0912C27.617 31.3799 28.6612 32.4279 29.9498 32.4279C31.2384 32.4279 32.2864 31.3836 32.2864 30.0949Z" fill="url(#paint17_radial_37_76177)"/>
<path d="M23.8881 30.0396C23.8881 28.7769 22.8438 27.7511 21.5552 27.7511C20.2666 27.7511 19.2187 28.7732 19.2187 30.0359C19.2187 31.2987 20.2629 32.3244 21.5515 32.3244C22.8401 32.3244 23.8881 31.3024 23.8881 30.0396Z" fill="url(#paint18_radial_37_76177)"/>
<path d="M37.4224 36.3356C37.4224 34.7358 36.1263 33.4397 34.5304 33.436C32.9344 33.4323 31.6347 34.7321 31.631 36.3282C31.6273 37.9242 32.9233 39.224 34.523 39.2277C36.1226 39.2314 37.4187 37.9316 37.4224 36.3356Z" fill="url(#paint19_radial_37_76177)"/>
<path fill-rule="evenodd" clip-rule="evenodd" d="M27.4877 47.3395C26.5065 47.184 25.6881 46.8692 25.2475 46.473C24.9734 46.2286 24.9105 45.9508 25.066 45.8583C25.1364 45.8138 25.2808 45.8138 25.4882 45.9249C26.6768 46.5507 28.0654 46.6729 28.4801 45.8657L31.2129 39.2593C31.3647 38.8927 31.6313 38.8149 31.8349 38.9371C31.9423 39.0001 31.9682 39.1482 31.9275 39.2667L29.8057 45.973C29.6502 46.6433 30.0909 46.61 30.8166 46.4656C31.0981 46.41 31.2647 46.3767 31.3573 46.3508C31.4609 46.3174 31.5794 46.3508 31.635 46.4433C31.8127 46.7359 31.224 47.1432 30.687 47.2617C29.6058 47.495 28.469 47.4987 27.4877 47.3395Z" fill="black"/>
<defs>
<linearGradient id="paint0_linear_37_76177" x1="60.4328" y1="63.7916" x2="72.1506" y2="10.9102" gradientUnits="userSpaceOnUse">
<stop stop-color="#DEDCFB"/>
<stop offset="1" stop-color="#F2ECFF"/>
</linearGradient>
<linearGradient id="paint1_linear_37_76177" x1="98.0363" y1="47.1496" x2="33.4963" y2="35.7232" gradientUnits="userSpaceOnUse">
<stop stop-color="white"/>
<stop offset="1" stop-color="#C8C8EE"/>
</linearGradient>
<linearGradient id="paint2_linear_37_76177" x1="-0.742312" y1="54.5873" x2="33.3195" y2="27.9601" gradientUnits="userSpaceOnUse">
<stop stop-color="#DEDCFB"/>
<stop offset="1" stop-color="#F2ECFF"/>
</linearGradient>
<linearGradient id="paint3_linear_37_76177" x1="12.6789" y1="21.794" x2="12.6731" y2="28.4596" gradientUnits="userSpaceOnUse">
<stop stop-color="#FF9A44"/>
<stop offset="1" stop-color="#FF7906"/>
</linearGradient>
<linearGradient id="paint4_linear_37_76177" x1="25.6428" y1="31.2686" x2="13.2057" y2="46.1807" gradientUnits="userSpaceOnUse">
<stop stop-color="#FF9036"/>
<stop offset="1" stop-color="#C36B26"/>
</linearGradient>
<linearGradient id="paint5_linear_37_76177" x1="34.2902" y1="34.2392" x2="22.6634" y2="45.8414" gradientUnits="userSpaceOnUse">
<stop stop-color="#FD8B1D"/>
<stop offset="1" stop-color="#E68C3E"/>
</linearGradient>
<linearGradient id="paint6_linear_37_76177" x1="23.8626" y1="33.4631" x2="7.90776" y2="52.3453" gradientUnits="userSpaceOnUse">
<stop stop-color="#E47A26"/>
<stop offset="1" stop-color="#9F551C"/>
</linearGradient>
<linearGradient id="paint7_linear_37_76177" x1="21.9953" y1="39.3092" x2="7.49212" y2="58.1076" gradientUnits="userSpaceOnUse">
<stop stop-color="#BF621A"/>
<stop offset="1" stop-color="#884910"/>
</linearGradient>
<linearGradient id="paint8_linear_37_76177" x1="9.11474" y1="41.2757" x2="0.128086" y2="52.9248" gradientUnits="userSpaceOnUse">
<stop stop-color="#BF621A"/>
<stop offset="1" stop-color="#884910"/>
</linearGradient>
<linearGradient id="paint9_linear_37_76177" x1="6.98366" y1="51.9498" x2="7.01629" y2="14.552" gradientUnits="userSpaceOnUse">
<stop stop-color="#5E5DF8"/>
<stop offset="1" stop-color="#F2AAF0"/>
</linearGradient>
<linearGradient id="paint10_linear_37_76177" x1="31.9425" y1="29.5751" x2="18.2623" y2="43.2343" gradientUnits="userSpaceOnUse">
<stop stop-color="#FFE6C1"/>
<stop offset="0.71" stop-color="#D6772B"/>
</linearGradient>
<linearGradient id="paint11_linear_37_76177" x1="22.7708" y1="29.3006" x2="22.7727" y2="27.1009" gradientUnits="userSpaceOnUse">
<stop stop-color="#FFE6C3"/>
<stop offset="1" stop-color="#FFE6C3" stop-opacity="0"/>
</linearGradient>
<linearGradient id="paint12_linear_37_76177" x1="30.7457" y1="30.189" x2="30.7415" y2="34.9253" gradientUnits="userSpaceOnUse">
<stop stop-color="white"/>
<stop offset="1" stop-color="white" stop-opacity="0"/>
</linearGradient>
<linearGradient id="paint13_linear_37_76177" x1="33.4633" y1="40.6341" x2="33.7051" y2="47.2916" gradientUnits="userSpaceOnUse">
<stop stop-color="white"/>
<stop offset="1" stop-color="white" stop-opacity="0"/>
</linearGradient>
<linearGradient id="paint14_linear_37_76177" x1="20.5965" y1="29.2165" x2="20.5925" y2="33.7566" gradientUnits="userSpaceOnUse">
<stop stop-color="#40555F"/>
<stop offset="1" stop-color="#152C37"/>
</linearGradient>
<linearGradient id="paint15_linear_37_76177" x1="29.2915" y1="29.691" x2="29.2894" y2="32.1054" gradientUnits="userSpaceOnUse">
<stop stop-color="#40555F"/>
<stop offset="1" stop-color="#152C37"/>
</linearGradient>
<radialGradient id="paint16_radial_37_76177" cx="0" cy="0" r="1" gradientUnits="userSpaceOnUse" gradientTransform="translate(27.4546 31.8538) rotate(135.672) scale(2.17017 2.17018)">
<stop stop-color="white"/>
<stop offset="0.19" stop-color="white" stop-opacity="0.59"/>
<stop offset="0.41" stop-color="white" stop-opacity="0.18"/>
<stop offset="1" stop-color="white" stop-opacity="0"/>
</radialGradient>
<radialGradient id="paint17_radial_37_76177" cx="0" cy="0" r="1" gradientUnits="userSpaceOnUse" gradientTransform="translate(29.676 30.0022) rotate(131.123) scale(2.25433 2.25431)">
<stop stop-color="#76A1B6"/>
<stop offset="0.19" stop-color="#76A1B6" stop-opacity="0.59"/>
<stop offset="0.41" stop-color="#76A1B6" stop-opacity="0.18"/>
<stop offset="1" stop-color="#76A1B6" stop-opacity="0"/>
</radialGradient>
<radialGradient id="paint18_radial_37_76177" cx="0" cy="0" r="1" gradientUnits="userSpaceOnUse" gradientTransform="translate(21.5294 30.0026) rotate(132.481) scale(2.65386 2.59794)">
<stop stop-color="#76A1B6"/>
<stop offset="0.19" stop-color="#76A1B6" stop-opacity="0.59"/>
<stop offset="0.41" stop-color="#76A1B6" stop-opacity="0.18"/>
<stop offset="1" stop-color="#76A1B6" stop-opacity="0"/>
</radialGradient>
<radialGradient id="paint19_radial_37_76177" cx="0" cy="0" r="1" gradientUnits="userSpaceOnUse" gradientTransform="translate(35.0453 36.8538) rotate(152.46) scale(2.92926 2.92936)">
<stop stop-color="white"/>
<stop offset="0.19" stop-color="white" stop-opacity="0.59"/>
<stop offset="0.41" stop-color="white" stop-opacity="0.18"/>
<stop offset="1" stop-color="white" stop-opacity="0"/>
</radialGradient>
</defs>
</svg>
